<?xml version="1.0" encoding="UTF-8" standalone="no"?>
<svg
   xmlns:dc="http://purl.org/dc/elements/1.1/"
   xmlns:cc="http://creativecommons.org/ns#"
   xmlns:rdf="http://www.w3.org/1999/02/22-rdf-syntax-ns#"
   xmlns:svg="http://www.w3.org/2000/svg"
   xmlns="http://www.w3.org/2000/svg"
   xmlns:sodipodi="http://sodipodi.sourceforge.net/DTD/sodipodi-0.dtd"
   xmlns:inkscape="http://www.inkscape.org/namespaces/inkscape"
   width="64"
   height="64"
   viewBox="0 0 64 64"
   version="1.1"
   id="svg10"
   sodipodi:docname="en-logo-w.svg"
   inkscape:version="1.0.1 (0767f8302a, 2020-10-17)">
  <metadata
     id="metadata16">
    <rdf:RDF>
      <cc:Work
         rdf:about="">
        <dc:format>image/svg+xml</dc:format>
        <dc:type
           rdf:resource="http://purl.org/dc/dcmitype/StillImage" />
        <dc:title>Group 33 Copy</dc:title>
      </cc:Work>
    </rdf:RDF>
  </metadata>
  <defs
     id="defs14" />
  <sodipodi:namedview
     pagecolor="#ffffff"
     bordercolor="#666666"
     borderopacity="1"
     objecttolerance="10"
     gridtolerance="10"
     guidetolerance="10"
     inkscape:pageopacity="0"
     inkscape:pageshadow="2"
     inkscape:window-width="1366"
     inkscape:window-height="704"
     id="namedview12"
     showgrid="false"
     showguides="true"
     inkscape:guide-bbox="true"
     inkscape:zoom="3.9163921"
     inkscape:cx="-40.65012"
     inkscape:cy="38.728116"
     inkscape:window-x="0"
     inkscape:window-y="27"
     inkscape:window-maximized="1"
     inkscape:current-layer="svg10">
    <sodipodi:guide
       position="32,32"
       orientation="-1,0"
       id="guide859"
       inkscape:label=""
       inkscape:locked="false"
       inkscape:color="rgb(0,0,255)" />
    <sodipodi:guide
       position="32,32"
       orientation="0,1"
       id="guide861"
       inkscape:label=""
       inkscape:locked="false"
       inkscape:color="rgb(0,0,255)" />
  </sodipodi:namedview>
  <!-- Generator: Sketch 52.2 (67145) - http://www.bohemiancoding.com/sketch -->
  <title
     id="title2">Group 33 Copy</title>
  <desc
     id="desc4">Created with Sketch.</desc>
  <path
     d="m 21.694946,41.070429 c 2.331336,0 4.234769,1.908605 4.234769,4.24646 0,2.352796 -1.888678,4.246607 -4.234769,4.246607 -2.346089,0 -4.234767,-1.893811 -4.234767,-4.246607 0,-2.337855 1.888678,-4.24646 4.234767,-4.24646 M 57.092877,26.48089 C 55.661614,25.045623 53.920491,23.950829 52.002303,23.314576 48.22495,13.72627 37.409327,9.0063207 27.847902,12.794088 c -1.490284,0.591861 -2.892038,1.36143 -4.175747,2.308408 -1.446016,1.065204 -2.744484,2.337854 -3.836374,3.773118 -0.604966,-0.07399 -1.22469,-0.11852 -1.844411,-0.11852 C 9.7136539,18.757094 3,25.489521 3,33.790529 c 0,6.480886 4.116724,12.103573 10.004082,14.175089 1.136158,3.743377 4.588894,6.451144 8.690864,6.451144 5.002045,0 9.074502,-4.083697 9.074502,-9.099873 0,-0.399359 -0.02951,-0.784217 -0.07378,-1.154132 L 43.488498,37.711614 43.385213,37.504313 44.595146,36.897804 42.131013,32 40.921079,32.606807 40.817796,32.399508 28.039718,38.821354 c -1.637836,-1.612964 -3.880641,-2.604333 -6.344774,-2.604333 -3.659311,0 -6.802188,2.175092 -8.248205,5.297309 -3.34946,-1.982735 -5.1348481,-6.022191 -4.1019791,-9.987665 1.2394441,-4.794081 6.1382001,-7.664758 10.9189131,-6.421701 0.870562,0.221947 1.711612,0.591862 2.478887,1.065351 2.183783,-6.614055 9.310586,-10.194965 15.891443,-8.005077 4.647917,1.553638 7.98261,5.667224 8.543312,10.550084 0.221329,-0.01496 0.457414,-0.02959 0.678742,-0.02959 3.865885,0 7.008762,3.151662 7.008762,7.028357 0,3.639802 -2.773996,6.673093 -6.403796,6.998765 H 43.31143 v 6.066582 h 5.415189 l 0.265595,-0.02974 c 7.171069,-0.606514 12.497727,-6.924636 11.89276,-14.1307 -0.265595,-3.062884 -1.608326,-5.948212 -3.792107,-8.138099"
     id="Fill-17"
     style="fill:#2b7bf6;fill-opacity:1;fill-rule:evenodd;stroke:none;stroke-width:0.825592" />
</svg>
